# xmcd
#
# Track frame offsets:
#	150
#	14727
#	27655
#	45882
#	58297
#	68558
#	81211
#	98987
#	122322
#	138463
#	151324
#	168975
#	188937
#	202423
#	215044
#
# Disc length: 3052 seconds
#
# Revision: 1
# Processed by: cddbd v1.5.2PL0 Copyright (c) Steve Scherf et al.
# Submitted via: audiograbber 1.83.01
#
DISCID=db0bea0f
DTITLE=Marty Robbins - CDG90066R
DYEAR=2007
DGENRE=Country
TTITLE0=Devil Woman
TTITLE1=White Sport Coat and a Pink Carnation
TTITLE2=Big Iron
TTITLE3=Ribbons of Darkness
TTITLE4=Ruby Ann
TTITLE5=Streets of Laredo
TTITLE6=Don't Worry
TTITLE7=El Paso
TTITLE8=I Walk Alone
TTITLE9=Singing the Blues
TTITLE10=My Woman, My Woman, My Wife
TTITLE11=El Paso City
TTITLE12=I'll Go On Alone
TTITLE13=Begging To You
TTITLE14=Tonight Carmen
EXTD=
EXTT0=
EXTT1=
EXTT2=
EXTT3=
EXTT4=
EXTT5=
EXTT6=
EXTT7=
EXTT8=
EXTT9=
EXTT10=
EXTT11=
EXTT12=
EXTT13=
EXTT14=
PLAYORDER=
